<svg id="visual" viewBox="0 0 960 540" width="960" height="540" xmlns="http://www.w3.org/2000/svg" xmlns:xlink="http://www.w3.org/1999/xlink" version="1.1"><rect x="0" y="0" width="960" height="540" fill="#1f1f1f"></rect><path d="M0 56L10 54C20 52 40 48 60 50.7C80 53.3 100 62.7 120 61.8C140 61 160 50 180 49C200 48 220 57 240 58.5C260 60 280 54 300 52.2C320 50.3 340 52.7 360 60.3C380 68 400 81 420 84C440 87 460 80 480 72.2C500 64.3 520 55.7 540 51.8C560 48 580 49 600 51.2C620 53.3 640 56.7 660 56.2C680 55.7 700 51.3 720 52.7C740 54 760 61 780 57.5C800 54 820 40 840 39.7C860 39.3 880 52.7 900 53C920 53.3 940 40.7 950 34.3L960 28L960 0L950 0C940 0 920 0 900 0C880 0 860 0 840 0C820 0 800 0 780 0C760 0 740 0 720 0C700 0 680 0 660 0C640 0 620 0 600 0C580 0 560 0 540 0C520 0 500 0 480 0C460 0 440 0 420 0C400 0 380 0 360 0C340 0 320 0 300 0C280 0 260 0 240 0C220 0 200 0 180 0C160 0 140 0 120 0C100 0 80 0 60 0C40 0 20 0 10 0L0 0Z" fill="#150050"></path><path d="M0 84L10 83.8C20 83.7 40 83.3 60 83.5C80 83.7 100 84.3 120 80C140 75.7 160 66.3 180 55C200 43.7 220 30.3 240 23.8C260 17.3 280 17.7 300 24.2C320 30.7 340 43.3 360 49.5C380 55.7 400 55.3 420 52.5C440 49.7 460 44.3 480 49.5C500 54.7 520 70.3 540 77.2C560 84 580 82 600 74.2C620 66.3 640 52.7 660 43.3C680 34 700 29 720 30C740 31 760 38 780 43.5C800 49 820 53 840 50.5C860 48 880 39 900 36.5C920 34 940 38 950 40L960 42L960 0L950 0C940 0 920 0 900 0C880 0 860 0 840 0C820 0 800 0 780 0C760 0 740 0 720 0C700 0 680 0 660 0C640 0 620 0 600 0C580 0 560 0 540 0C520 0 500 0 480 0C460 0 440 0 420 0C400 0 380 0 360 0C340 0 320 0 300 0C280 0 260 0 240 0C220 0 200 0 180 0C160 0 140 0 120 0C100 0 80 0 60 0C40 0 20 0 10 0L0 0Z" fill="#1d0158"></path><path d="M0 57L10 58C20 59 40 61 60 58C80 55 100 47 120 43.3C140 39.7 160 40.3 180 42.3C200 44.3 220 47.7 240 53.2C260 58.7 280 66.3 300 62.7C320 59 340 44 360 38.7C380 33.3 400 37.7 420 35.3C440 33 460 24 480 28.7C500 33.3 520 51.7 540 53.7C560 55.7 580 41.3 600 34.2C620 27 640 27 660 29.5C680 32 700 37 720 40.7C740 44.3 760 46.7 780 52.2C800 57.7 820 66.3 840 66.2C860 66 880 57 900 56C920 55 940 62 950 65.5L960 69L960 0L950 0C940 0 920 0 900 0C880 0 860 0 840 0C820 0 800 0 780 0C760 0 740 0 720 0C700 0 680 0 660 0C640 0 620 0 600 0C580 0 560 0 540 0C520 0 500 0 480 0C460 0 440 0 420 0C400 0 380 0 360 0C340 0 320 0 300 0C280 0 260 0 240 0C220 0 200 0 180 0C160 0 140 0 120 0C100 0 80 0 60 0C40 0 20 0 10 0L0 0Z" fill="#25015f"></path><path d="M0 60L10 53C20 46 40 32 60 24.7C80 17.3 100 16.7 120 22.2C140 27.7 160 39.3 180 43.5C200 47.7 220 44.3 240 45.2C260 46 280 51 300 52.7C320 54.3 340 52.7 360 48.5C380 44.3 400 37.7 420 38.5C440 39.3 460 47.7 480 48.7C500 49.7 520 43.3 540 41.7C560 40 580 43 600 39.8C620 36.7 640 27.3 660 24.5C680 21.7 700 25.3 720 24.8C740 24.3 760 19.7 780 17.3C800 15 820 15 840 16.2C860 17.3 880 19.7 900 27.3C920 35 940 48 950 54.5L960 61L960 0L950 0C940 0 920 0 900 0C880 0 860 0 840 0C820 0 800 0 780 0C760 0 740 0 720 0C700 0 680 0 660 0C640 0 620 0 600 0C580 0 560 0 540 0C520 0 500 0 480 0C460 0 440 0 420 0C400 0 380 0 360 0C340 0 320 0 300 0C280 0 260 0 240 0C220 0 200 0 180 0C160 0 140 0 120 0C100 0 80 0 60 0C40 0 20 0 10 0L0 0Z" fill="#2e0267"></path><path d="M0 35L10 38.8C20 42.7 40 50.3 60 53.2C80 56 100 54 120 53.2C140 52.3 160 52.7 180 53C200 53.3 220 53.7 240 51.8C260 50 280 46 300 44.5C320 43 340 44 360 45.3C380 46.7 400 48.3 420 43.2C440 38 460 26 480 26.7C500 27.3 520 40.7 540 47.3C560 54 580 54 600 54C620 54 640 54 660 49.5C680 45 700 36 720 34.5C740 33 760 39 780 39.2C800 39.3 820 33.7 840 28.7C860 23.7 880 19.3 900 23.8C920 28.3 940 41.7 950 48.3L960 55L960 0L950 0C940 0 920 0 900 0C880 0 860 0 840 0C820 0 800 0 780 0C760 0 740 0 720 0C700 0 680 0 660 0C640 0 620 0 600 0C580 0 560 0 540 0C520 0 500 0 480 0C460 0 440 0 420 0C400 0 380 0 360 0C340 0 320 0 300 0C280 0 260 0 240 0C220 0 200 0 180 0C160 0 140 0 120 0C100 0 80 0 60 0C40 0 20 0 10 0L0 0Z" fill="#36026e"></path><path d="M0 18L10 20.2C20 22.3 40 26.7 60 29.5C80 32.3 100 33.7 120 33C140 32.3 160 29.7 180 25.8C200 22 220 17 240 14.2C260 11.3 280 10.7 300 11.8C320 13 340 16 360 17.2C380 18.3 400 17.7 420 17.8C440 18 460 19 480 18.3C500 17.7 520 15.3 540 20.3C560 25.3 580 37.7 600 42C620 46.3 640 42.7 660 38.3C680 34 700 29 720 27C740 25 760 26 780 27.7C800 29.3 820 31.7 840 33.5C860 35.3 880 36.7 900 32.8C920 29 940 20 950 15.5L960 11L960 0L950 0C940 0 920 0 900 0C880 0 860 0 840 0C820 0 800 0 780 0C760 0 740 0 720 0C700 0 680 0 660 0C640 0 620 0 600 0C580 0 560 0 540 0C520 0 500 0 480 0C460 0 440 0 420 0C400 0 380 0 360 0C340 0 320 0 300 0C280 0 260 0 240 0C220 0 200 0 180 0C160 0 140 0 120 0C100 0 80 0 60 0C40 0 20 0 10 0L0 0Z" fill="#3e0276"></path><path d="M0 42L10 38.8C20 35.7 40 29.3 60 28.2C80 27 100 31 120 28.5C140 26 160 17 180 13.2C200 9.3 220 10.7 240 11C260 11.3 280 10.7 300 13.5C320 16.3 340 22.7 360 23C380 23.3 400 17.7 420 16.8C440 16 460 20 480 21.3C500 22.7 520 21.3 540 18.8C560 16.3 580 12.7 600 13.3C620 14 640 19 660 20C680 21 700 18 720 15.2C740 12.3 760 9.7 780 9.3C800 9 820 11 840 12.5C860 14 880 15 900 20C920 25 940 34 950 38.5L960 43L960 0L950 0C940 0 920 0 900 0C880 0 860 0 840 0C820 0 800 0 780 0C760 0 740 0 720 0C700 0 680 0 660 0C640 0 620 0 600 0C580 0 560 0 540 0C520 0 500 0 480 0C460 0 440 0 420 0C400 0 380 0 360 0C340 0 320 0 300 0C280 0 260 0 240 0C220 0 200 0 180 0C160 0 140 0 120 0C100 0 80 0 60 0C40 0 20 0 10 0L0 0Z" fill="#47027d"></path><path d="M0 25L10 25.7C20 26.3 40 27.7 60 27.3C80 27 100 25 120 24.5C140 24 160 25 180 24.3C200 23.7 220 21.3 240 20.2C260 19 280 19 300 21C320 23 340 27 360 25.2C380 23.3 400 15.7 420 13.7C440 11.7 460 15.3 480 18C500 20.7 520 22.3 540 23.7C560 25 580 26 600 24C620 22 640 17 660 13.5C680 10 700 8 720 8.8C740 9.7 760 13.3 780 17.2C800 21 820 25 840 24.3C860 23.7 880 18.3 900 18.2C920 18 940 23 950 25.5L960 28L960 0L950 0C940 0 920 0 900 0C880 0 860 0 840 0C820 0 800 0 780 0C760 0 740 0 720 0C700 0 680 0 660 0C640 0 620 0 600 0C580 0 560 0 540 0C520 0 500 0 480 0C460 0 440 0 420 0C400 0 380 0 360 0C340 0 320 0 300 0C280 0 260 0 240 0C220 0 200 0 180 0C160 0 140 0 120 0C100 0 80 0 60 0C40 0 20 0 10 0L0 0Z" fill="#4f0285"></path><path d="M0 18L10 17.3C20 16.7 40 15.3 60 15.3C80 15.3 100 16.7 120 18.5C140 20.3 160 22.7 180 20.2C200 17.7 220 10.3 240 10.2C260 10 280 17 300 17.2C320 17.3 340 10.7 360 10.2C380 9.7 400 15.3 420 16.8C440 18.3 460 15.7 480 15.7C500 15.7 520 18.3 540 19.8C560 21.3 580 21.7 600 21.7C620 21.7 640 21.3 660 19.8C680 18.3 700 15.7 720 13.2C740 10.7 760 8.3 780 7.8C800 7.3 820 8.7 840 9.7C860 10.7 880 11.3 900 11.3C920 11.3 940 10.7 950 10.3L960 10L960 0L950 0C940 0 920 0 900 0C880 0 860 0 840 0C820 0 800 0 780 0C760 0 740 0 720 0C700 0 680 0 660 0C640 0 620 0 600 0C580 0 560 0 540 0C520 0 500 0 480 0C460 0 440 0 420 0C400 0 380 0 360 0C340 0 320 0 300 0C280 0 260 0 240 0C220 0 200 0 180 0C160 0 140 0 120 0C100 0 80 0 60 0C40 0 20 0 10 0L0 0Z" fill="#58018d"></path><path d="M0 7L10 6.3C20 5.7 40 4.3 60 5C80 5.7 100 8.3 120 10.5C140 12.7 160 14.3 180 13.8C200 13.3 220 10.7 240 9.3C260 8 280 8 300 9.3C320 10.7 340 13.3 360 13.5C380 13.7 400 11.3 420 10C440 8.7 460 8.3 480 9.7C500 11 520 14 540 13.5C560 13 580 9 600 6.7C620 4.3 640 3.7 660 3C680 2.3 700 1.7 720 2.8C740 4 760 7 780 7.3C800 7.7 820 5.3 840 5.3C860 5.3 880 7.7 900 9.3C920 11 940 12 950 12.5L960 13L960 0L950 0C940 0 920 0 900 0C880 0 860 0 840 0C820 0 800 0 780 0C760 0 740 0 720 0C700 0 680 0 660 0C640 0 620 0 600 0C580 0 560 0 540 0C520 0 500 0 480 0C460 0 440 0 420 0C400 0 380 0 360 0C340 0 320 0 300 0C280 0 260 0 240 0C220 0 200 0 180 0C160 0 140 0 120 0C100 0 80 0 60 0C40 0 20 0 10 0L0 0Z" fill="#610094"></path></svg>